<?xml version="1.0" standalone="no"?>
<!DOCTYPE svg PUBLIC "-//W3C//DTD SVG 20010904//EN"
 "http://www.w3.org/TR/2001/REC-SVG-20010904/DTD/svg10.dtd">
<svg version="1.0" xmlns="http://www.w3.org/2000/svg"
 width="360.000000pt" height="300.000000pt" viewBox="0 0 360.000000 300.000000"
 preserveAspectRatio="xMidYMid meet">

<g transform="translate(0.000000,300.000000) scale(0.100000,-0.100000)"
fill="#000000" stroke="none">
<path d="M2422 2963 c-5 -11 -2 -109 9 -243 26 -326 30 -292 -43 -341 -100
-67 -198 -149 -198 -165 0 -17 28 -12 113 22 32 13 57 18 55 12 -2 -6 -19 -16
-37 -22 -47 -16 -43 -30 9 -37 42 -5 43 -6 17 -13 -16 -5 -50 -4 -79 2 -28 5
-62 6 -77 2 -25 -6 -23 -8 29 -34 l55 -28 -69 6 c-98 8 -172 35 -380 140 -300
152 -384 171 -711 160 -194 -6 -279 -1 -391 22 -31 6 -32 5 -74 -80 -39 -78
-42 -91 -37 -139 5 -49 3 -54 -22 -68 -31 -18 -54 -61 -72 -134 -7 -28 -16
-53 -19 -57 -3 -4 -29 1 -58 12 -54 21 -127 27 -136 11 -9 -14 88 -97 151
-130 106 -53 171 -65 338 -65 159 1 180 4 565 83 107 22 239 47 292 56 96 15
299 21 311 9 3 -4 -15 -23 -41 -44 -100 -79 -188 -191 -286 -365 -59 -104
-106 -155 -141 -155 -11 0 -55 11 -98 25 -82 26 -146 32 -177 15 -17 -9 -60
-69 -60 -84 0 -3 12 -6 26 -6 32 0 94 -59 94 -89 0 -20 -5 -21 -90 -21 l-90 0
0 38 c0 144 -88 226 -258 239 -95 7 -215 -7 -452 -53 -96 -19 -199 -34 -228
-34 -67 0 -60 -17 11 -26 l52 -7 -35 -13 -35 -12 50 -4 c50 -3 50 -3 23 -17
-40 -21 -35 -29 23 -37 l52 -7 -67 -17 c-89 -22 -99 -35 -30 -36 79 -2 86 -17
22 -42 l-53 -21 63 0 c39 -1 61 -5 57 -11 -3 -5 -15 -10 -25 -10 -10 0 -31 -5
-47 -12 l-28 -12 40 -6 c45 -7 37 -12 -50 -31 -49 -11 -55 -14 -30 -17 70 -8
38 -32 -65 -47 -25 -4 -51 -11 -59 -15 -14 -8 140 -23 227 -22 59 0 60 -12 2
-29 -45 -14 -44 -29 1 -29 44 0 26 -17 -37 -36 -72 -21 -72 -39 0 -30 69 8 80
-7 26 -34 -43 -22 -55 -47 -17 -36 73 22 169 35 292 41 382 19 534 80 565 230
l6 30 87 3 c52 2 87 -1 87 -7 0 -12 -42 -41 -92 -64 -40 -18 -50 -37 -20 -37
9 0 24 -5 32 -10 12 -8 11 -13 -8 -33 -23 -25 -20 -37 9 -37 15 0 13 -5 -9
-29 -15 -16 -37 -42 -48 -58 l-21 -28 131 0 c131 0 131 -1 271 -49 134 -46
144 -48 218 -42 l77 5 -14 -27 c-8 -15 -39 -56 -70 -91 -77 -89 -89 -149 -46
-231 18 -34 28 -40 77 -40 l42 0 -6 35 c-5 32 -4 35 20 35 14 0 63 -18 109
-40 129 -62 207 -69 311 -25 29 12 37 21 37 40 0 29 -35 56 -157 123 -43 23
-93 55 -112 71 -33 27 -33 29 -21 65 15 45 82 115 247 254 68 57 139 126 159
153 l36 49 227 0 228 0 1 -32 c1 -46 31 -70 93 -76 39 -4 61 0 86 13 32 18 34
18 56 -2 77 -70 131 -55 178 51 l21 49 114 -7 c106 -6 115 -5 134 14 25 25 26
71 2 93 -15 14 -41 17 -135 17 -115 0 -116 0 -136 28 -13 19 -35 32 -70 41
-45 11 -54 11 -77 -4 -24 -15 -27 -15 -71 10 -119 70 -380 394 -474 587 -23
47 -23 47 -3 83 16 31 20 34 29 19 21 -35 78 -99 109 -122 67 -49 103 -10 90
98 -7 66 -21 94 -68 139 -20 19 -36 38 -36 42 0 4 18 0 41 -7 49 -17 63 -11
55 27 -8 41 16 38 71 -7 32 -27 47 -34 55 -26 17 17 -18 90 -67 138 -43 41
-48 54 -70 175 -7 36 -6 37 53 73 73 44 122 88 122 110 0 32 -81 20 -166 -24
-43 -22 -81 -40 -84 -40 -4 0 -67 99 -139 220 -73 121 -138 220 -146 220 -8 0
-18 -8 -23 -17z m250 -1655 l99 -98 -165 0 -164 0 -12 35 c-16 49 -55 92 -104
117 -46 23 -76 47 -76 60 0 17 66 48 102 48 44 0 69 27 94 102 l17 51 55 -109
c49 -97 66 -120 154 -206z"/>
</g>
</svg>
